<svg width="36" height="36" viewBox="0 0 36 36" fill="none" xmlns="http://www.w3.org/2000/svg">
<circle cx="18" cy="18" r="17" stroke="url(#paint0_linear_2_1367)" stroke-width="2"/>
<path d="M30.8859 30.3657V30.3657C30.1729 29.7779 29.6857 28.9612 29.5073 28.0546L29.437 27.6975C29.3786 27.4011 29.2936 27.1106 29.183 26.8294L28.9435 26.2212C28.6363 25.4406 28.2495 24.6938 27.7893 23.9924L27.6135 23.7244L27.0015 22.7916C26.8313 22.5322 26.636 22.2902 26.4184 22.0691L26.1543 21.8008C25.9711 21.6146 25.759 21.4594 25.5261 21.341L25.3214 21.2371C25.1166 21.133 24.89 21.0787 24.6603 21.0787V21.0787C24.325 21.0787 23.9998 21.1942 23.7396 21.4057L22.6627 22.2812C22.2054 22.6529 21.6901 22.9467 21.1374 23.151L20.1689 23.5088C19.783 23.6514 19.3748 23.7244 18.9634 23.7244V23.7244C18.5144 23.7244 18.0697 23.6375 17.6538 23.4684L17.1987 23.2835L15.4629 22.4016L12.5363 21.1495C11.7472 20.8119 10.8979 20.6378 10.0396 20.6378H9.49321C8.85326 20.6378 8.22236 20.7889 7.65182 21.0787V21.0787L7.12753 21.3451C6.89996 21.4607 6.69263 21.6125 6.51358 21.7944V21.7944C6.40477 21.9049 6.30711 22.026 6.22202 22.1557L5.89457 22.6547C5.0568 23.9317 3.88719 24.9564 2.51121 25.619L1.95605 25.8863M24.7928 7.62992L24.0686 6.30527C23.8293 5.86765 23.5305 5.46535 23.1806 5.10987V5.10987C22.8109 4.73419 22.3881 4.41476 21.9257 4.16176L21.456 3.90473C20.371 3.31113 19.1542 3 17.9175 3V3C16.5948 3 15.2965 3.35588 14.1586 4.03032L13.8319 4.22399C13.4734 4.43649 13.1333 4.67868 12.8152 4.948V4.948C12.2688 5.4107 11.7919 5.94969 11.3991 6.54836L11.1541 6.92175C10.8462 7.39108 10.6121 7.90492 10.4602 8.44529V8.44529C10.3244 8.9283 10.2555 9.42766 10.2555 9.9294V11.7495C10.2555 12.6718 10.402 13.5882 10.6895 14.4646V14.4646L10.8272 14.8145C11.0242 15.3148 11.2721 15.7935 11.567 16.243V16.243C11.8492 16.6731 12.1731 17.0744 12.5339 17.4411L12.5946 17.5028C13.0588 17.9745 13.5752 18.3917 14.1339 18.7465L15.029 19.315V19.315C15.5995 19.6048 16.2304 19.7559 16.8703 19.7559H18.8289C19.4689 19.7559 20.0998 19.6048 20.6703 19.315V19.315L21.1333 19.0536C22.1179 18.4978 22.9909 17.7641 23.7079 16.8898V16.8898L23.926 16.5575C24.3581 15.8989 24.7213 15.1975 25.0098 14.4646V14.4646V14.4646C25.2973 13.5882 25.4437 12.6718 25.4437 11.7495V10.8482C25.4437 9.74274 25.2224 8.64848 24.7928 7.62992V7.62992Z" stroke="url(#paint1_linear_2_1367)" stroke-width="2"/>
<defs>
<linearGradient id="paint0_linear_2_1367" x1="27.1736" y1="60.059" x2="-3.37534" y2="-20.4933" gradientUnits="userSpaceOnUse">
<stop offset="0.102506" stop-color="#C82020"/>
<stop offset="0.661379" stop-color="#2717CF"/>
<stop offset="1" stop-color="#2717CF"/>
</linearGradient>
<linearGradient id="paint1_linear_2_1367" x1="12.3226" y1="56.4487" x2="-6.19662" y2="-18.7779" gradientUnits="userSpaceOnUse">
<stop offset="0.162705" stop-color="#C82020"/>
<stop offset="0.468413" stop-color="#2717CF"/>
</linearGradient>
</defs>
</svg>
