<svg width="150" height="150" viewBox="0 0 150 150" fill="none" xmlns="http://www.w3.org/2000/svg">
<path d="M0 10C0 4.47715 4.47715 0 10 0H140C145.523 0 150 4.47715 150 10V140C150 145.523 145.523 150 140 150H10C4.47715 150 0 145.523 0 140V10Z" fill="url(#paint0_linear_32_23)"/>
<path d="M66.272 73.84C68.5493 74.3253 70.3787 75.464 71.76 77.256C73.1413 79.0107 73.832 81.0267 73.832 83.304C73.832 86.5893 72.6747 89.2027 70.36 91.144C68.0827 93.048 64.8907 94 60.784 94H42.472V54.688H60.168C64.1627 54.688 67.28 55.6027 69.52 57.432C71.7973 59.2613 72.936 61.744 72.936 64.88C72.936 67.1947 72.32 69.1173 71.088 70.648C69.8933 72.1787 68.288 73.2427 66.272 73.84ZM52.048 70.592H58.32C59.888 70.592 61.0827 70.256 61.904 69.584C62.7627 68.8747 63.192 67.848 63.192 66.504C63.192 65.16 62.7627 64.1333 61.904 63.424C61.0827 62.7147 59.888 62.36 58.32 62.36H52.048V70.592ZM59.104 86.272C60.7093 86.272 61.9413 85.9173 62.8 85.208C63.696 84.4613 64.144 83.3973 64.144 82.016C64.144 80.6347 63.6773 79.552 62.744 78.768C61.848 77.984 60.5973 77.592 58.992 77.592H52.048V86.272H59.104ZM108.842 77.872C108.842 78.768 108.786 79.7013 108.674 80.672H87.0021C87.1514 82.6133 87.7674 84.1067 88.8501 85.152C89.9701 86.16 91.3327 86.664 92.9381 86.664C95.3274 86.664 96.9887 85.656 97.9221 83.64H108.114C107.591 85.6933 106.639 87.5413 105.258 89.184C103.914 90.8267 102.215 92.1147 100.162 93.048C98.1087 93.9813 95.8127 94.448 93.2741 94.448C90.2127 94.448 87.4874 93.7947 85.0981 92.488C82.7087 91.1813 80.8421 89.3147 79.4981 86.888C78.1541 84.4613 77.4821 81.624 77.4821 78.376C77.4821 75.128 78.1354 72.2907 79.4421 69.864C80.7861 67.4373 82.6527 65.5707 85.0421 64.264C87.4314 62.9573 90.1754 62.304 93.2741 62.304C96.2981 62.304 98.9861 62.9387 101.338 64.208C103.69 65.4773 105.519 67.288 106.826 69.64C108.17 71.992 108.842 74.736 108.842 77.872ZM99.0421 75.352C99.0421 73.7093 98.4821 72.4027 97.3621 71.432C96.2421 70.4613 94.8421 69.976 93.1621 69.976C91.5567 69.976 90.1941 70.4427 89.0741 71.376C87.9914 72.3093 87.3194 73.6347 87.0581 75.352H99.0421Z" fill="white"/>
<rect x="86" y="55" width="15" height="5" fill="white"/>
<defs>
<linearGradient id="paint0_linear_32_23" x1="75" y1="-21" x2="75" y2="178.5" gradientUnits="userSpaceOnUse">
<stop/>
<stop offset="0.520833" stop-color="#696969" stop-opacity="0.75"/>
<stop offset="1" stop-opacity="0.9"/>
</linearGradient>
</defs>
</svg>
