<svg width="150" height="150" viewBox="0 0 150 150" fill="none" xmlns="http://www.w3.org/2000/svg">
<path d="M0 10C0 4.47715 4.47715 0 10 0H140C145.523 0 150 4.47715 150 10V140C150 145.523 145.523 150 140 150H10C4.47715 150 0 145.523 0 140V10Z" fill="url(#paint0_linear_32_28)"/>
<path d="M58.6919 106.879L59.8277 88.6412C59.8927 87.596 60.3651 86.618 61.1433 85.9173L97.0973 53.5428C98.0032 52.727 96.9386 51.3078 95.902 51.9493L50.4063 80.1007C49.4383 80.6997 48.2609 80.8579 47.1691 80.5356L28.406 74.9971C25.6643 74.1878 25.5008 70.3661 28.1634 69.3256L105.604 39.0627C110.058 37.3221 114.659 41.237 113.654 45.9124L100.563 106.795C99.6408 111.085 94.5756 112.966 91.0764 110.318L74.0112 97.4026C73.2371 96.8167 72.154 96.8714 71.4428 97.5323L62.6601 105.694C61.71 106.577 60.5217 107.161 59.2424 107.375C58.942 107.426 58.673 107.183 58.6919 106.879Z" fill="white"/>
<defs>
<linearGradient id="paint0_linear_32_28" x1="75" y1="-21" x2="75" y2="178.5" gradientUnits="userSpaceOnUse">
<stop/>
<stop offset="0.520833" stop-color="#696969" stop-opacity="0.75"/>
<stop offset="1" stop-opacity="0.9"/>
</linearGradient>
</defs>
</svg>
